#define workspace_width 64
#define workspace_height 64
static unsigned char workspace_bits[] = {
  0x00, 0x00, 0x00, 0x00, 0x00, 0x00, 0x00, 0x00, 0x00, 0x00, 0x00, 0x00,
  0x00, 0x00, 0x00, 0x00, 0x00, 0x00, 0x00, 0x00, 0x00, 0x00, 0x00, 0x00,
  0x00, 0x00, 0x00, 0x00, 0x00, 0x00, 0x00, 0x00, 0x00, 0x00, 0x00, 0x00,
  0x00, 0x00, 0x00, 0x00, 0x00, 0x00, 0x00, 0x00, 0x00, 0x00, 0x00, 0x00,
  0x00, 0x00, 0x00, 0x00, 0x00, 0x00, 0x00, 0x00, 0x00, 0x00, 0x00, 0x00,
  0x00, 0x00, 0x00, 0x00, 0x00, 0x00, 0x00, 0x00, 0x00, 0x00, 0x00, 0x00,
  0x00, 0x00, 0x00, 0x00, 0x00, 0x00, 0x00, 0x00, 0x00, 0x00, 0x00, 0x00,
  0x00, 0x00, 0x00, 0x00, 0x00, 0x00, 0x00, 0x00, 0x00, 0x00, 0x00, 0x00,
  0x00, 0x00, 0x00, 0x00, 0x00, 0x00, 0x00, 0x00, 0x00, 0x00, 0x00, 0x00,
  0x00, 0x00, 0x00, 0x00, 0x00, 0x00, 0x00, 0x00, 0x00, 0xf8, 0xff, 0xff,
  0x00, 0x00, 0x00, 0x00, 0x00, 0x54, 0x55, 0x55, 0x00, 0x00, 0x00, 0x00,
  0x00, 0xab, 0xaa, 0x2a, 0x00, 0x00, 0x00, 0x00, 0x80, 0x55, 0x5f, 0x11,
  0x00, 0x00, 0x00, 0x00, 0xe0, 0xaa, 0xaa, 0x0e, 0x00, 0x00, 0x00, 0x00,
  0xf0, 0xff, 0xff, 0x01, 0x00, 0x00, 0x00, 0x00, 0xfc, 0xff, 0x7f, 0x00,
  0x00, 0x00, 0x00, 0x00, 0xff, 0xff, 0x7f, 0x00, 0x00, 0x00, 0x00, 0xc0,
  0xff, 0xff, 0x9f, 0x00, 0x00, 0x00, 0x00, 0xf0, 0xff, 0xff, 0x8f, 0x00,
  0x00, 0x00, 0x00, 0xfc, 0xff, 0xff, 0x03, 0x01, 0x00, 0x00, 0x00, 0xff,
  0xff, 0xff, 0x01, 0x01, 0x00, 0x00, 0xc0, 0xff, 0xff, 0xff, 0x00, 0x02,
  0x00, 0x00, 0xd0, 0xff, 0xff, 0x3f, 0x00, 0x02, 0x00, 0x00, 0xfc, 0xff,
  0xff, 0x1f, 0x00, 0x04, 0x00, 0x00, 0xdf, 0xff, 0xff, 0x0f, 0x00, 0x04,
  0x00, 0x80, 0xff, 0xff, 0xff, 0x07, 0x00, 0x08, 0x00, 0xc0, 0x55, 0x55,
  0x55, 0x0b, 0x00, 0x0c, 0x00, 0xe0, 0xab, 0xaa, 0xaa, 0x0a, 0x00, 0x04,
  0x00, 0xf0, 0x55, 0x55, 0x55, 0x13, 0x00, 0x02, 0x00, 0xf8, 0xab, 0xaa,
  0xaa, 0x23, 0x00, 0x01, 0x00, 0xf8, 0x55, 0x55, 0x55, 0x23, 0x00, 0x01,
  0x00, 0xfc, 0xaa, 0xaa, 0xaa, 0x43, 0x80, 0x00, 0x00, 0xfe, 0x55, 0x55,
  0x55, 0x83, 0x50, 0x00, 0x00, 0xdf, 0xaa, 0xaa, 0xaa, 0x83, 0x28, 0x00,
  0x80, 0xcf, 0x55, 0x55, 0x55, 0x03, 0x51, 0x00, 0x80, 0xc7, 0xaa, 0xaa,
  0xaa, 0x02, 0x49, 0x00, 0x80, 0x47, 0x55, 0x55, 0xd5, 0x02, 0x56, 0x00,
  0x80, 0xc1, 0xaa, 0xaa, 0xaa, 0x02, 0x4e, 0x00, 0x00, 0x40, 0x55, 0x55,
  0x55, 0x02, 0x44, 0x00, 0x00, 0xc0, 0xaa, 0xaa, 0xaa, 0x02, 0x40, 0x00,
  0x00, 0xc0, 0xff, 0xff, 0x7f, 0x02, 0x60, 0x00, 0x00, 0x00, 0x01, 0x00,
  0x00, 0x02, 0x10, 0x00, 0x00, 0x00, 0x01, 0x00, 0x00, 0x02, 0x08, 0x00,
  0x00, 0x00, 0x01, 0x00, 0x00, 0x02, 0x04, 0x00, 0x00, 0x00, 0x01, 0x00,
  0x00, 0x02, 0x03, 0x00, 0x00, 0x00, 0x01, 0x00, 0x00, 0x82, 0x00, 0x00,
  0x00, 0x00, 0x01, 0x00, 0x00, 0x42, 0x00, 0x00, 0x00, 0x00, 0x01, 0x00,
  0x00, 0x22, 0x00, 0x00, 0x00, 0x00, 0x01, 0x00, 0x00, 0x12, 0x00, 0x00,
  0x00, 0x00, 0x01, 0x00, 0x00, 0x0a, 0x00, 0x00, 0x00, 0x00, 0xff, 0xff,
  0xff, 0x07, 0x00, 0x00, 0x00, 0x00, 0x00, 0x00, 0x00, 0x00, 0x00, 0x00,
  0x00, 0x00, 0x00, 0x00, 0x00, 0x00, 0x00, 0x00, 0x00, 0x00, 0x00, 0x00,
  0x00, 0x00, 0x00, 0x00, 0x00, 0x00, 0x00, 0x00, 0x00, 0x00, 0x00, 0x00,
  0x00, 0x00, 0x00, 0x00, 0x00, 0x00, 0x00, 0x00, 0x00, 0x00, 0x00, 0x00,
  0x00, 0x00, 0x00, 0x00, 0x00, 0x00, 0x00, 0x00, 0x00, 0x00, 0x00, 0x00,
  0x00, 0x00, 0x00, 0x00, 0x00, 0x00, 0x00, 0x00, };
